<svg xmlns="http://www.w3.org/2000/svg" width="380" height="460" viewBox="0 0 380 460">
<rect width="380" height="460" fill="#15171c"/>
<line x1="0" y1="423.7" x2="380" y2="423.7" stroke="#2c3038" stroke-width="1"/>
<line x1="164.6" y1="348.6" x2="262.5" y2="348.6" stroke="#2b2f38" stroke-width="26.7" stroke-linecap="round"/>
<circle cx="263.7" cy="327.4" r="15.4" fill="#cdc6bd" opacity="0.16"/>
<circle cx="234.2" cy="327.4" r="15.4" fill="#cdc6bd" opacity="0.16"/>
<circle cx="261.7" cy="347.3" r="15.4" fill="#cdc6bd" opacity="0.16"/>
<circle cx="232.3" cy="347.3" r="15.4" fill="#cdc6bd" opacity="0.16"/>
<circle cx="254.2" cy="334.0" r="12.8" fill="#cdc6bd" opacity="0.16"/>
<circle cx="238.0" cy="334.0" r="12.8" fill="#cdc6bd" opacity="0.16"/>
<circle cx="272.6" cy="375.1" r="11.3" fill="#cdc6bd" opacity="0.16"/>
<circle cx="243.1" cy="375.1" r="11.3" fill="#cdc6bd" opacity="0.16"/>
<circle cx="242.8" cy="340.3" r="13.2" fill="#cdc6bd" opacity="0.16"/>
<circle cx="216.3" cy="340.3" r="13.2" fill="#cdc6bd" opacity="0.16"/>
<circle cx="213.9" cy="308.6" r="16.9" fill="#49e98d" opacity="0.28"/>
<circle cx="213.9" cy="337.8" r="15.8" fill="#cdc6bd" opacity="0.16"/>
<circle cx="207.8" cy="306.9" r="13.8" fill="#d4f14b" opacity="0.50"/>
<circle cx="187.2" cy="306.9" r="13.8" fill="#d4f14b" opacity="0.50"/>
<circle cx="223.7" cy="328.6" r="14.8" fill="#49e98d" opacity="0.28"/>
<circle cx="185.4" cy="328.6" r="14.8" fill="#49e98d" opacity="0.28"/>
<circle cx="189.7" cy="330.3" r="16.5" fill="#cdc6bd" opacity="0.16"/>
<circle cx="216.5" cy="325.2" r="14.1" fill="#d4f14b" opacity="0.50"/>
<circle cx="160.9" cy="325.2" r="14.1" fill="#d4f14b" opacity="0.50"/>
<circle cx="218.9" cy="297.8" r="9.7" fill="#cdc6bd" opacity="0.16"/>
<circle cx="156.8" cy="297.8" r="9.7" fill="#cdc6bd" opacity="0.16"/>
<circle cx="225.8" cy="300.9" r="15.2" fill="#f6b152" opacity="0.69"/>
<circle cx="163.7" cy="300.9" r="15.2" fill="#f6b152" opacity="0.69"/>
<circle cx="228.5" cy="254.0" r="11.4" fill="#49ea70" opacity="0.32"/>
<circle cx="155.3" cy="254.0" r="11.4" fill="#49ea70" opacity="0.32"/>
<line x1="226.5" y1="323.6" x2="215.5" y2="323.6" stroke="#d7d1c6" stroke-width="13.8" stroke-linecap="round"/>
<line x1="215.5" y1="323.6" x2="201.4" y2="323.6" stroke="#d7d1c6" stroke-width="13.8" stroke-linecap="round"/>
<line x1="201.4" y1="323.6" x2="187.3" y2="323.6" stroke="#d7d1c6" stroke-width="12.5" stroke-linecap="round"/>
<line x1="187.3" y1="323.6" x2="179.5" y2="323.6" stroke="#d7d1c6" stroke-width="30.0" stroke-linecap="round"/>
<line x1="201.4" y1="323.6" x2="216.9" y2="323.6" stroke="#d7d1c6" stroke-width="12.5" stroke-linecap="round"/>
<line x1="216.9" y1="323.6" x2="227.8" y2="275.1" stroke="#d7d1c6" stroke-width="11.3" stroke-linecap="round"/>
<line x1="227.8" y1="275.1" x2="229.3" y2="231.2" stroke="#d7d1c6" stroke-width="13.8" stroke-linecap="round"/>
<line x1="226.5" y1="323.6" x2="245.9" y2="323.6" stroke="#d7d1c6" stroke-width="21.3" stroke-linecap="round"/>
<line x1="245.9" y1="323.6" x2="278.8" y2="350.5" stroke="#d7d1c6" stroke-width="15.0" stroke-linecap="round"/>
<line x1="278.8" y1="350.5" x2="272.7" y2="417.6" stroke="#d7d1c6" stroke-width="13.8" stroke-linecap="round"/>
<line x1="201.4" y1="323.6" x2="160.9" y2="323.6" stroke="#d7d1c6" stroke-width="12.5" stroke-linecap="round"/>
<line x1="160.9" y1="323.6" x2="159.6" y2="275.1" stroke="#d7d1c6" stroke-width="11.3" stroke-linecap="round"/>
<line x1="159.6" y1="275.1" x2="150.7" y2="231.2" stroke="#d7d1c6" stroke-width="13.8" stroke-linecap="round"/>
<line x1="226.5" y1="323.6" x2="216.4" y2="323.6" stroke="#d7d1c6" stroke-width="21.3" stroke-linecap="round"/>
<line x1="216.4" y1="323.6" x2="249.3" y2="350.5" stroke="#d7d1c6" stroke-width="15.0" stroke-linecap="round"/>
<line x1="249.3" y1="350.5" x2="243.2" y2="417.6" stroke="#d7d1c6" stroke-width="13.8" stroke-linecap="round"/>
<circle cx="179.5" cy="310.2" r="19.2" fill="#d7d1c6" opacity="1.00"/>
<circle cx="300.5" cy="231.2" r="33.4" fill="#26282e" opacity="1.00"/>
<circle cx="79.5" cy="231.2" r="33.4" fill="#26282e" opacity="1.00"/>
<line x1="352.0" y1="231.2" x2="28.0" y2="231.2" stroke="#5b606b" stroke-width="8.3" stroke-linecap="butt"/>
<text x="16" y="28" fill="#e8e6e1" font-family="sans-serif" font-size="15" font-weight="700">벤치프레스 · Bench Press</text>
<text x="16" y="46" fill="#8b9099" font-family="sans-serif" font-size="11">lockout · top</text>
</svg>
